<svg width="553" height="298" viewBox="0 0 553 298" fill="none" xmlns="http://www.w3.org/2000/svg">
<g filter="url(#filter0_d_3118_7)">
<path d="M553 297.5C553 261.19 545.848 225.235 531.953 191.688C518.057 158.142 497.69 127.66 472.015 101.985C446.34 76.3096 415.858 55.9427 382.312 42.0473C348.765 28.1519 312.81 21 276.5 21C240.189 21 204.235 28.1519 170.688 42.0473C137.141 55.9427 106.66 76.3096 80.985 101.985C55.3096 127.66 34.9427 158.142 21.0473 191.688C7.15188 225.235 -3.17436e-06 261.19 0 297.5L276.5 297.5H553Z" fill="#D9D9D9" fill-opacity="0.01" shape-rendering="crispEdges"/>
</g>
<defs>
<filter id="filter0_d_3118_7" x="0" y="0.4" width="553" height="297.1" filterUnits="userSpaceOnUse" color-interpolation-filters="sRGB">
<feFlood flood-opacity="0" result="BackgroundImageFix"/>
<feColorMatrix in="SourceAlpha" type="matrix" values="0 0 0 0 0 0 0 0 0 0 0 0 0 0 0 0 0 0 127 0" result="hardAlpha"/>
<feMorphology radius="23" operator="erode" in="SourceAlpha" result="effect1_dropShadow_3118_7"/>
<feOffset dy="-21"/>
<feGaussianBlur stdDeviation="11.3"/>
<feComposite in2="hardAlpha" operator="out"/>
<feColorMatrix type="matrix" values="0 0 0 0 0.996078 0 0 0 0 0.870588 0 0 0 0 0.345098 0 0 0 1 0"/>
<feBlend mode="normal" in2="BackgroundImageFix" result="effect1_dropShadow_3118_7"/>
<feBlend mode="normal" in="SourceGraphic" in2="effect1_dropShadow_3118_7" result="shape"/>
</filter>
</defs>
</svg>
